<svg width="39" height="39" viewBox="0 0 39 39" fill="none" xmlns="http://www.w3.org/2000/svg">
<path d="M32.0961 1.32202H6.90405C5.94957 1.32202 5.03418 1.70506 4.35926 2.38686C3.68434 3.06867 3.30518 3.9934 3.30518 4.95761V8.59321C3.30518 9.55743 3.68434 10.4822 4.35926 11.164C5.03418 11.8458 5.94957 12.2288 6.90405 12.2288V32.2246C6.90405 33.6709 7.47279 35.058 8.48517 36.0807C9.49755 37.1034 10.8706 37.678 12.3024 37.678H26.6978C28.1296 37.678 29.5026 37.1034 30.515 36.0807C31.5274 35.058 32.0961 33.6709 32.0961 32.2246V12.2288C33.0506 12.2288 33.966 11.8458 34.6409 11.164C35.3158 10.4822 35.695 9.55743 35.695 8.59321V4.95761C35.695 3.9934 35.3158 3.06867 34.6409 2.38686C33.966 1.70506 33.0506 1.32202 32.0961 1.32202ZM28.4973 26.7712H17.7007V19.5H28.4973V26.7712ZM28.4973 15.8644H15.9012C15.424 15.8644 14.9663 16.0559 14.6288 16.3968C14.2914 16.7377 14.1018 17.2001 14.1018 17.6822V28.589C14.1018 29.0711 14.2914 29.5334 14.6288 29.8743C14.9663 30.2153 15.424 30.4068 15.9012 30.4068H28.4973V32.2246C28.4973 32.7067 28.3077 33.169 27.9702 33.5099C27.6328 33.8508 27.1751 34.0424 26.6978 34.0424H12.3024C11.8251 34.0424 11.3674 33.8508 11.03 33.5099C10.6925 33.169 10.5029 32.7067 10.5029 32.2246V12.2288H28.4973V15.8644ZM6.90405 8.59321V4.95761H32.0961V8.59321H6.90405Z" fill="black"/>
</svg>
